# xmcd
#
# Track frame offsets: 
#        150
#        15729
#        25314
#        41762
#        57066
#        75231
#        92264
#        109070
#        119651
#        128680
#        144733
#        152884
#        164792
#        185186
#        199376
#        207623
#        218134
#        231339
#        240325
#        253129
#        266504
#        278106
#        288018
#        297411
#        314412
#        321705
#        336451
#        346903
#
# Disc length: 4772 seconds
#
# Revision: 0
# Processed by: cddbd v1.5.2PL0 Copyright (c) Steve Scherf et al.
# Submitted via: ExactAudioCopy v0.99pb5
#
DISCID=bb12a21c
DTITLE=Elvis Presley  - FTD 59-2 - His Hand In Mine - CD 2  FLAC
DYEAR=1900
DGENRE=
TTITLE0=Milky White Way- Takes 4, 6 and 5
TTITLE1=His Hand In Mine- Takes 2 and 3
TTITLE2=His Hand In Mine- Take 4
TTITLE3=His Hand In Mine- Take 5
TTITLE4=I Believe In The Man In The Sky- Takes 2, 3 and 4
TTITLE5=He Knows Just What I Need- Takes 2, 3 and 4
TTITLE6=He Knows Just What I Need- Takes 5, 6 and 7
TTITLE7=He Knows Just What I Need- Take 8
TTITLE8=Surrender- Take 2
TTITLE9=Surrender- Take 3, 5 and 6
TTITLE10=Surrender- Take 7
TTITLE11=Surrender- Takes 8 and 9
TTITLE12=Surrender- Work Part Takes 2\\1, 3, 4, 5, 6 and 7
TTITLE13=In My Father's House- takes 1-4
TTITLE14=In My Father's House- takes 5 and 6
TTITLE15=In My Father's House- take 7
TTITLE16=Joshua Fit The Battle- take 2
TTITLE17=Joshua Fit The Battle- take 3
TTITLE18=Swing Down Sweet Chariot- Take 1
TTITLE19=Swing Down Sweet Chariot- Take 2 and 3
TTITLE20=I'm Gonna Walk Dem Golden Stairs- Takes 2-3
TTITLE21=I'm Gonna Walk Dem Golden Stairs- Take 4
TTITLE22=I'm Gonna Walk Dem Golden Stairs- Take 5
TTITLE23=Known Only To Him- Takes 3-5
TTITLE24=Crying In The Chapel- Take 1
TTITLE25=Crying In The Chapel- Take 2-3
TTITLE26=Working On The Building- Take 2
TTITLE27=Working On The Building- Takes 3-4
EXTD=
EXTT0=
EXTT1=
EXTT2=
EXTT3=
EXTT4=
EXTT5=
EXTT6=
EXTT7=
EXTT8=
EXTT9=
EXTT10=
EXTT11=
EXTT12=
EXTT13=
EXTT14=
EXTT15=
EXTT16=
EXTT17=
EXTT18=
EXTT19=
EXTT20=
EXTT21=
EXTT22=
EXTT23=
EXTT24=
EXTT25=
EXTT26=
EXTT27=
PLAYORDER=
